<svg width="118" height="86" viewBox="0 0 118 86" fill="none" xmlns="http://www.w3.org/2000/svg">
<path d="M16.598 27.5C17.4396 27.5 18.1911 28.0268 18.4781 28.818L30.722 62.5717C31.357 64.3223 33.8296 64.3312 34.4773 62.5853L51.5001 16.6956C51.9847 15.3892 51.0183 14 49.6249 14H46.8188C46.0187 14 45.2957 13.5232 44.9805 12.7878L40.6948 2.78784C40.1292 1.4681 41.0972 0 42.5331 0H73.288C74.6906 0 75.6576 1.40619 75.1555 2.71587L43.7195 84.7228C43.423 85.4963 42.6803 86.0069 41.852 86.0069H32.7702H23.6909C22.8613 86.0069 22.1178 85.4948 21.8222 84.7196L1.03455 30.2127C0.535262 28.9035 1.50211 27.5 2.90326 27.5H16.598Z" fill="black"/>
<path d="M62.5965 46.1508C63.2436 44.3997 65.7243 44.4114 66.3549 46.1685L72.2059 62.4717C72.8388 64.2353 75.3319 64.2383 75.9691 62.4762L92.5307 16.6802C93.0023 15.3764 92.0364 14 90.65 14H88.3188C87.5187 14 86.7957 13.5232 86.4805 12.7878L82.1948 2.78784C81.6292 1.4681 82.5972 0 84.0331 0H114.788C116.191 0 117.158 1.40619 116.656 2.71587L85.2195 84.7228C84.923 85.4963 84.1803 86.0069 83.352 86.0069H65.2254C64.3788 86.0069 63.6239 85.4739 63.3406 84.6761L56.2424 64.6828C56.0858 64.2416 56.0889 63.7595 56.2512 63.3204L62.5965 46.1508Z" fill="black"/>
</svg>
