<svg width="127" height="127" viewBox="0 0 127 127" fill="none" xmlns="http://www.w3.org/2000/svg">
<path d="M21.598 47.5C22.4396 47.5 23.1911 48.0268 23.4781 48.818L35.722 82.5717C36.357 84.3223 38.8296 84.3312 39.4773 82.5853L56.5001 36.6956C56.9847 35.3892 56.0183 34 54.6249 34H51.8188C51.0187 34 50.2957 33.5232 49.9805 32.7878L45.6948 22.7878C45.1292 21.4681 46.0972 20 47.5331 20H78.288C79.6906 20 80.6576 21.4062 80.1555 22.7159L48.7195 104.723C48.423 105.496 47.6803 106.007 46.852 106.007H37.7702H28.6909C27.8613 106.007 27.1178 105.495 26.8222 104.72L6.03455 50.2127C5.53526 48.9035 6.50211 47.5 7.90326 47.5H21.598Z" fill="black"/>
<path d="M67.5965 66.1508C68.2436 64.3997 70.7243 64.4114 71.3549 66.1685L77.2059 82.4717C77.8388 84.2353 80.3319 84.2383 80.9691 82.4762L97.5307 36.6802C98.0023 35.3764 97.0364 34 95.65 34H93.3188C92.5187 34 91.7957 33.5232 91.4805 32.7878L87.1948 22.7878C86.6292 21.4681 87.5972 20 89.0331 20H119.788C121.191 20 122.158 21.4062 121.656 22.7159L90.2195 104.723C89.923 105.496 89.1803 106.007 88.352 106.007H70.2254C69.3788 106.007 68.6239 105.474 68.3406 104.676L61.2424 84.6828C61.0858 84.2416 61.0889 83.7595 61.2512 83.3204L67.5965 66.1508Z" fill="black"/>
</svg>
